<svg width="1920" height="1080" viewBox="0 0 1920 1080" xmlns="http://www.w3.org/2000/svg"><rect width="1920" height="1080" fill="#3d1053"/><path d="M1571.2006976552739,556.9999999999999C1588.1154284278002,634.0139952818266,1554.4143302255536,752.3291872215528,1521.1272745855604,801.0419858454801C1487.8402189455671,849.7547844694074,1443.3446135700394,793.5114710882949,1371.4783638153149,849.2767917435635C1299.6121140605903,905.0421123988322,1161.4623496865304,1128.9833484559017,1089.9297760572126,1135.633909777092C1018.3972024278949,1142.2844710982822,1013.9378847156102,899.0166042551092,942.282922039408,889.1801596707044C870.627959363206,879.3437150862995,715.1464209200398,1073.5334103198666,660.0000000000001,1076.6152422706632C604.8535790799605,1079.6970742214598,657.3858232592174,969.9825226721518,611.4043965191702,907.671151375484C565.4229697791229,845.3597800788161,419.3269323862923,777.316708801679,384.1114395597167,702.7470144906558C348.8959467331411,628.1773201796326,353.6109108131568,518.6299637421149,400.1114395597166,460.25298550934457C446.61196830627637,401.8760072765742,612.2998519656949,408.7950398888171,663.1146120390754,352.4851450940336C713.9293721124559,296.17525029925014,659.8052816666111,179.88009209795496,704.9999999999998,122.39361674064389C750.1947183333884,64.90714138333283,854.5478892685794,9.006116028986819,934.2829220394075,7.566292950167281C1014.0179548102356,6.126469871347742,1106.5442896623172,95.99687630716066,1183.4101966249684,113.75467826772666C1260.2761035876197,131.51248022829265,1356.1069149277423,76.57921539909779,1395.4783638153147,114.11310471356325C1434.849812702887,151.6469940280287,1390.3518343104085,265.14353160678,1419.6388899504018,338.95801415451945C1448.925945590395,412.7724967022589,1554.2859668827475,479.9860047181731,1571.2006976552739,556.9999999999999C1588.1154284278002,634.0139952818266,1554.4143302255536,752.3291872215528,1521.1272745855604,801.0419858454801" fill="#df6688"/></svg>